<mxfile host="app.diagrams.net" modified="2023-10-11T12:07:20.643Z" agent="Mozilla/5.0 (X11; Linux x86_64) AppleWebKit/537.36 (KHTML, like Gecko) Chrome/81.0.4044.138 Safari/537.36" version="22.0.4" etag="7g8Nj7kl203eq2SwWYxh" type="github">
  <diagram name="Page-1" id="Pvdsl_HD9jPusnyXKjAc">
    <mxGraphModel>
      <root>
        <mxCell id="0" />
        <mxCell id="1" parent="0" />
      </root>
    </mxGraphModel>
  </diagram>
</mxfile>
